#!OML:ASF H:\Not Pregnant\Project 1\Capture day 1\Session 1\non-pregnant.ASF
:FULLY-SPECIFIED
:DEGREES
3644
root 7.56747 13.9511 33.1172 254.502 -37.2297 -225.325
lowerback 24.521 7.37963 28.7849
upperback -6.70977 19.0782 9.54977
thorax -15.2396 5.32403 -9.02261
lowerneck -7.46024 -6.36756 -27.7347
upperneck 11.6184 -10.0652 29.4531
head 7.89203 -4.60229 14.6081
rclavicle 9.70069e-014 2.70347e-014
rhumerus -22.1426 -60.8113 8.75686
rradius 21.4207
rwrist 56.5161
rhand -7.31748 -1.18608
rfingers 7.12502
rthumb 18.5655 -30.3201
lclavicle 9.70069e-014 2.70347e-014
lhumerus -30.9023 25.3653 -22.2927
lradius 32.6182
lwrist 46.4647
lhand -33.4693 -8.33301
lfingers 7.12502
lthumb -6.66731 21.542
rfemur -145.038 -34.6763 75.5988
rtibia 29.421
rfoot 22.7041 46.1032
rtoes 0.604308
lfemur -20.596 -4.60078 -42.0701
ltibia 1.59028e-014
lfoot -12.7031 -6.71391
ltoes 49.6975
3645
root 7.55968 13.9526 33.1191 254.584 -37.3208 -225.374
lowerback 24.4383 7.43968 28.7975
upperback -6.73296 19.1303 9.62428
thorax -15.2343 5.34386 -8.94164
lowerneck -7.40906 -6.37513 -27.7376
upperneck 11.621 -10.0832 29.4149
head 7.88581 -4.61562 14.588
rclavicle -2.22639e-014 8.90555e-014
rhumerus -22.2186 -60.843 9.03275
rradius 21.446
rwrist 56.5075
rhand -7.34331 -1.20429
rfingers 7.12502
rthumb 18.5406 -30.3407
lclavicle -2.22639e-014 8.90555e-014
lhumerus -30.878 25.3661 -22.2304
lradius 32.6384
lwrist 46.6131
lhand -33.5985 -8.3448
lfingers 7.12502
lthumb -6.79196 21.5263
rfemur -145.27 -34.5291 75.9698
rtibia 29.3773
rfoot 22.7063 46.3478
rtoes 0.639506
lfemur -20.6201 -4.68612 -42.0014
ltibia -3.81667e-014
lfoot -12.6659 -6.76416
ltoes 49.9126
3646
root 7.55194 13.954 33.1214 254.666 -37.4031 -225.426
lowerback 24.3442 7.5096 28.7883
upperback -6.74589 19.1821 9.7023
thorax -15.2177 5.36923 -8.84639
lowerneck -7.38526 -6.39246 -27.739
upperneck 11.6274 -10.109 29.3768
head 7.88888 -4.63056 14.5667
rclavicle -1.06549e-013 9.38264e-014
rhumerus -22.2976 -60.9002 9.32057
rradius 21.4722
rwrist 56.4831
rhand -7.35856 -1.2372
rfingers 7.12502
rthumb 18.5259 -30.375
lclavicle -1.06549e-013 9.38264e-014
lhumerus -30.8443 25.3739 -22.1575
lradius 32.6574
lwrist 46.7907
lhand -33.7206 -8.35484
lfingers 7.12502
lthumb -6.90981 21.5124
rfemur -145.523 -34.3488 76.3706
rtibia 29.3272
rfoot 22.7209 46.6297
rtoes 0.702552
lfemur -20.6464 -4.7709 -41.941
ltibia -9.22361e-014
lfoot -12.623 -6.80912
ltoes 50.1332
3647
root 7.54419 13.9552 33.124 254.751 -37.4767 -225.483
lowerback 24.2474 7.58185 28.7654
upperback -6.75307 19.2308 9.77973
thorax -15.1973 5.39628 -8.74564
lowerneck -7.37119 -6.41086 -27.7443
upperneck 11.6307 -10.1329 29.3428
head 7.89289 -4.64386 14.5481
rclavicle 1.43125e-014 1.59823e-013
rhumerus -22.3672 -60.9782 9.59941
rradius 21.5019
rwrist 56.4576
rhand -7.36479 -1.29541
rfingers 7.12502
rthumb 18.5199 -30.4338
lclavicle 1.43125e-014 1.59823e-013
lhumerus -30.8073 25.3748 -22.0851
lradius 32.6747
lwrist 46.9797
lhand -33.8289 -8.33679
lfingers 7.12502
lthumb -7.01441 21.527
rfemur -145.793 -34.1445 76.7904
rtibia 29.2716
rfoot 22.7436 46.9397
rtoes 0.792008
lfemur -20.674 -4.85575 -41.8889
ltibia 9.54166e-015
lfoot -12.5732 -6.85113
ltoes 50.3561
3648
root 7.53637 13.956 33.1269 254.839 -37.5406 -225.542
lowerback 24.1535 7.65232 28.7328
upperback -6.76167 19.2767 9.85174
thorax -15.1818 5.42231 -8.64806
lowerneck -7.3448 -6.42212 -27.7545
upperneck 11.6235 -10.1485 29.319
head 7.88948 -4.65394 14.5361
rclavicle 1.36764e-013 1.59028e-015
rhumerus -22.4234 -61.0608 9.85703
rradius 21.5337
rwrist 56.4323
rhand -7.36262 -1.37645
rfingers 7.12502
rthumb 18.522 -30.5146
lclavicle 1.36764e-013 1.59028e-015
lhumerus -30.7729 25.363 -22.0238
lradius 32.6942
lwrist 47.1564
lhand -33.9086 -8.2951
lfingers 7.12502
lthumb -7.09135 21.5661
rfemur -146.075 -33.918 77.2224
rtibia 29.2115
rfoot 22.7737 47.2724
rtoes 0.911227
lfemur -20.7035 -4.94057 -41.8458
ltibia -3.18055e-015
lfoot -12.5172 -6.89236
ltoes 50.5799
3649
root 7.52848 13.9566 33.1301 254.928 -37.5991 -225.605
lowerback 24.0648 7.71941 28.6958
upperback -6.77339 19.3205 9.91858
thorax -15.1732 5.44649 -8.55571
lowerneck -7.30153 -6.42555 -27.7703
upperneck 11.6057 -10.1559 29.3044
head 7.87767 -4.66118 14.5302
rclavicle 1.66979e-013 1.23246e-013
rhumerus -22.4748 -61.1575 10.0993
rradius 21.5655
rwrist 56.4248
rhand -7.37767 -1.46701
rfingers 7.12502
rthumb 18.5076 -30.6066
lclavicle 1.66979e-013 1.23246e-013
lhumerus -30.7482 25.3421 -21.9749
lradius 32.7182
lwrist 47.3019
lhand -33.9578 -8.26406
lfingers 7.12502
lthumb -7.13886 21.5955
rfemur -146.36 -33.6835 77.6545
rtibia 29.1475
rfoot 22.8502 47.5877
rtoes 1.11478
lfemur -20.7327 -5.02564 -41.8081
ltibia -1.27222e-014
lfoot -12.4561 -6.93547
ltoes 50.8063
3650
root 7.52055 13.9567 33.1337 255.019 -37.6456 -225.671
lowerback 23.9738 7.79116 28.6438
upperback -6.78347 19.3654 9.97877
thorax -15.1628 5.47351 -8.46525
lowerneck -7.25461 -6.43162 -27.7708
upperneck 11.574 -10.1661 29.2851
head 7.86055 -4.66917 14.5173
rclavicle -3.49861e-014 -1.67774e-013
rhumerus -22.5403 -61.2578 10.353
rradius 21.5942
rwrist 56.4168
rhand -7.40611 -1.56724
rfingers 7.12502
rthumb 18.4802 -30.7094
lclavicle -3.49861e-014 -1.67774e-013
lhumerus -30.7216 25.3302 -21.9263
lradius 32.7431
lwrist 47.4079
lhand -33.9704 -8.24456
lfingers 7.12502
lthumb -7.15102 21.6146
rfemur -146.633 -33.4558 78.055
rtibia 29.079
rfoot 22.9539 47.8717
rtoes 1.36338
lfemur -20.7625 -5.11001 -41.7826
ltibia 3.49861e-014
lfoot -12.3926 -6.98046
ltoes 51.0362
3651
root 7.51267 13.9566 33.1377 255.108 -37.6883 -225.736
lowerback 23.8801 7.8691 28.5843
upperback -6.78907 19.4139 10.0347
thorax -15.1447 5.50481 -8.3763
lowerneck -7.22564 -6.44813 -27.7536
upperneck 11.5448 -10.1881 29.257
head 7.85013 -4.68088 14.4947
rclavicle 1.01778e-013 1.39149e-013
rhumerus -22.6426 -61.3573 10.6324
rradius 21.6268
rwrist 56.4015
rhand -7.44004 -1.66152
rfingers 7.12502
rthumb 18.4476 -30.8068
lclavicle 1.01778e-013 1.39149e-013
lhumerus -30.6858 25.3238 -21.8693
lradius 32.7658
lwrist 47.4889
lhand -33.9589 -8.24001
lfingers 7.12502
lthumb -7.13988 21.6196
rfemur -146.893 -33.2322 78.4371
rtibia 29.0057
rfoot 23.0746 48.1344
rtoes 1.63279
lfemur -20.7922 -5.19223 -41.7607
ltibia -6.36111e-015
lfoot -12.33 -7.02588
ltoes 51.2649
3652
root 7.50492 13.9566 33.1421 255.194 -37.7315 -225.797
lowerback 23.7901 7.94969 28.5252
upperback -6.79401 19.4672 10.0879
thorax -15.1255 5.5383 -8.29168
lowerneck -7.19846 -6.46935 -27.731
upperneck 11.5148 -10.2175 29.2291
head 7.842 -4.69571 14.4699
rclavicle 1.74931e-014 3.18055e-014
rhumerus -22.7674 -61.4663 10.9313
rradius 21.6599
rwrist 56.3984
rhand -7.47241 -1.73807
rfingers 7.12502
rthumb 18.4164 -30.8863
lclavicle 1.74931e-014 3.18055e-014
lhumerus -30.6436 25.309 -21.8044
lradius 32.7924
lwrist 47.5566
lhand -33.9374 -8.25221
lfingers 7.12502
lthumb -7.11916 21.6081
rfemur -147.148 -32.9986 78.8239
rtibia 28.9261
rfoot 23.2074 48.4045
rtoes 1.91336
lfemur -20.8211 -5.27201 -41.7385
ltibia -1.27222e-014
lfoot -12.2674 -7.07017
ltoes 51.496
3653
root 7.49739 13.9568 33.1468 255.275 -37.7787 -225.855
lowerback 23.7073 8.02965 28.4718
upperback -6.80038 19.5244 10.1394
thorax -15.1086 5.57208 -8.2127
lowerneck -7.16592 -6.49064 -27.7123
upperneck 11.4867 -10.2505 29.2088
head 7.8354 -4.71265 14.4494
rclavicle -5.56597e-014 9.54166e-015
rhumerus -22.8954 -61.5657 11.2323
rradius 21.6877
rwrist 56.3982
rhand -7.47619 -1.80031
rfingers 7.12502
rthumb 18.4128 -30.9489
lclavicle -5.56597e-014 9.54166e-015
lhumerus -30.5948 25.2775 -21.7329
lradius 32.8226
lwrist 47.6218
lhand -33.9299 -8.25125
lfingers 7.12502
lthumb -7.11188 21.6093
rfemur -147.39 -32.7678 79.2048
rtibia 28.8393
rfoot 23.3152 48.6871
rtoes 2.13906
lfemur -20.8474 -5.34996 -41.7137
ltibia -3.81667e-014
lfoot -12.2061 -7.11239
ltoes 51.7233
3654
root 7.49014 13.9573 33.1517 255.353 -37.829 -225.91
lowerback 23.6304 8.10961 28.4213
upperback -6.80743 19.5849 10.1915
thorax -15.0944 5.6063 -8.13577
lowerneck -7.12995 -6.51181 -27.6998
upperneck 11.4642 -10.2861 29.194
head 7.83154 -4.7314 14.4331
rclavicle 6.99722e-014 3.65764e-014
rhumerus -23.0282 -61.6752 11.5408
rradius 21.7102
rwrist 56.4206
rhand -7.43931 -1.837
rfingers 7.12502
rthumb 18.4483 -30.9822
lclavicle 6.99722e-014 3.65764e-014
lhumerus -30.5413 25.233 -21.6548
lradius 32.8576
lwrist 47.686
lhand -33.9369 -8.23649
lfingers 7.12502
lthumb -7.11869 21.6238
rfemur -147.637 -32.5118 79.6129
rtibia 28.7444
rfoot 23.3973 49.0227
rtoes 2.33024
lfemur -20.8732 -5.42681 -41.6869
ltibia 0
lfoot -12.1444 -7.14923
ltoes 51.9484
3655
root 7.48323 13.9581 33.1569 255.429 -37.8831 -225.965
lowerback 23.5599 8.18517 28.3727
upperback -6.81351 19.6428 10.2461
thorax -15.0839 5.63856 -8.05759
lowerneck -7.09853 -6.53016 -27.7
upperneck 11.4545 -10.32 29.1899
head 7.83353 -4.74956 14.426
rclavicle 5.08889e-014 4.77083e-015
rhumerus -23.1398 -61.7857 11.8255
rradius 21.73
rwrist 56.4572
rhand -7.336 -1.85573
rfingers 7.12502
rthumb 18.5476 -30.9915
lclavicle 5.08889e-014 4.77083e-015
lhumerus -30.4932 25.1756 -21.5808
lradius 32.8966
lwrist 47.7508
lhand -33.9578 -8.21625
lfingers 7.12502
lthumb -7.13882 21.6433
rfemur -147.89 -32.2332 80.0471
rtibia 28.6422
rfoot 23.4548 49.4083
rtoes 2.4649
lfemur -20.898 -5.50414 -41.6579
ltibia -4.45278e-014
lfoot -12.0807 -7.17982
ltoes 52.1717
3656
root 7.47661 13.959 33.1622 255.509 -37.9327 -226.022
lowerback 23.4939 8.25627 28.3166
upperback -6.82186 19.6962 10.3016
thorax -15.0828 5.66795 -7.9768
lowerneck -7.05194 -6.53777 -27.7023
upperneck 11.4464 -10.3422 29.1856
head 7.82904 -4.76341 14.4212
rclavicle 1.19271e-014 -1.67774e-013
rhumerus -23.2222 -61.8939 12.079
rradius 21.7426
rwrist 56.4988
rhand -7.16513 -1.86592
rfingers 7.12502
rthumb 18.712 -30.9859
lclavicle 1.19271e-014 -1.67774e-013
lhumerus -30.451 25.0964 -21.5141
lradius 32.9389
lwrist 47.8206
lhand -33.9897 -8.20063
lfingers 7.12502
lthumb -7.16958 21.6579
rfemur -148.156 -31.9252 80.503
rtibia 28.5338
rfoot 23.4951 49.8459
rtoes 2.54629
lfemur -20.9247 -5.58329 -41.6351
ltibia -3.49861e-014
lfoot -12.013 -7.20629
ltoes 52.3909
3657
root 7.47027 13.9598 33.1675 255.589 -37.9767 -226.08
lowerback 23.4241 8.33601 28.2491
upperback -6.82898 19.7561 10.3484
thorax -15.0762 5.70266 -7.90155
lowerneck -7.01401 -6.55462 -27.6739
upperneck 11.436 -10.3784 29.1732
head 7.82779 -4.78196 14.4037
rclavicle -5.48646e-014 1.08934e-013
rhumerus -23.3677 -61.9837 12.3765
rradius 21.7574
rwrist 56.5125
rhand -6.94125 -1.86637
rfingers 7.12502
rthumb 18.9273 -30.9655
lclavicle -5.48646e-014 1.08934e-013
lhumerus -30.3751 25.0449 -21.4356
lradius 32.9756
lwrist 47.8743
lhand -34.0242 -8.20637
lfingers 7.12502
lthumb -7.20293 21.651
rfemur -148.442 -31.5738 80.9957
rtibia 28.4227
rfoot 23.5582 50.3296
rtoes 2.62723
lfemur -20.9534 -5.66212 -41.6177
ltibia -2.8625e-014
lfoot -11.9412 -7.22814
ltoes 52.6079
3658
root 7.46413 13.9603 33.1729 255.671 -38.011 -226.142
lowerback 23.3466 8.41995 28.1629
upperback -6.82762 19.8118 10.3968
thorax -15.0625 5.74004 -7.81549
lowerneck -6.99503 -6.57654 -27.6316
upperneck 11.4282 -10.4161 29.1482
head 7.82975 -4.79952 14.3768
rclavicle 1.11319e-014 -7.71285e-014
rhumerus -23.5103 -62.0829 12.6736
rradius 21.7637
rwrist 56.516
rhand -6.68317 -1.86514
rfingers 7.12502
rthumb 19.1755 -30.9398
lclavicle 1.11319e-014 -7.71285e-014
lhumerus -30.3002 25.006 -21.3558
lradius 33.0064
lwrist 47.9132
lhand -34.0519 -8.23628
lfingers 7.12502
lthumb -7.22966 21.6202
rfemur -148.744 -31.1881 81.5074
rtibia 28.3125
rfoot 23.6363 50.846
rtoes 2.72062
lfemur -20.985 -5.73981 -41.6081
ltibia 5.08889e-014
lfoot -11.8652 -7.24704
ltoes 52.8236
